# xmcd
#
# Track frame offsets:
#	150
#	16575
#	33302
#	50352
#	70555
#	88124
#	107335
#	125141
#	146498
#	161711
#
# Disc length: 2400 seconds
#
# Revision: 0
# Processed by: cddbd v1.5.2PL0 Copyright (c) Steve Scherf et al.
# Submitted via: EasyCDDAExtractor 2010.6.0.0
#
DISCID=79095e0a
DTITLE=Various Artist - W tę szaloną noc
DYEAR=1900
DGENRE=
TTITLE0=Bayer Full - Lipka zielona
TTITLE1=Classic - Obejmij mnie
TTITLE2=Akcent - Moja gwiazda
TTITLE3=Boys - Dziewczyna z marzeń
TTITLE4=Marvel - W te szaloną noc
TTITLE5=Tropic - Noc goracych ciał
TTITLE6=Maxi Dance - Tylko tańcz
TTITLE7=Max X - Bal u weteranów
TTITLE8=Diament - Stokrotka
TTITLE9=Milano - Kasiu katarzyno
EXTD=
EXTT0=
EXTT1=
EXTT2=
EXTT3=
EXTT4=
EXTT5=
EXTT6=
EXTT7=
EXTT8=
EXTT9=
PLAYORDER=
